<?xml version="1.0" standalone="no"?>
<!DOCTYPE svg PUBLIC "-//W3C//DTD SVG 20010904//EN"
 "http://www.w3.org/TR/2001/REC-SVG-20010904/DTD/svg10.dtd">
<svg version="1.0" xmlns="http://www.w3.org/2000/svg"
 width="512.000000pt" height="512.000000pt" viewBox="0 0 512.000000 512.000000"
 preserveAspectRatio="xMidYMid meet">
<metadata>
Created by potrace 1.14, written by Peter Selinger 2001-2017
</metadata>
<g transform="translate(0.000000,512.000000) scale(0.100000,-0.100000)"
fill="#000000" stroke="none">
<path d="M2470 4333 c-462 -217 -942 -368 -1402 -439 l-118 -18 0 -515 c0
-544 6 -654 50 -866 129 -632 508 -1193 1050 -1556 105 -70 335 -191 445 -233
l71 -27 79 31 c344 136 696 392 942 685 317 377 502 797 569 1295 18 132 33
1165 18 1180 -5 5 -68 19 -139 30 -471 77 -1014 250 -1415 450 l-55 28 -95
-45z m210 -1093 c66 -132 123 -240 128 -240 11 0 507 -72 510 -75 1 -1 -83
-87 -187 -191 l-188 -189 44 -253 c25 -140 43 -256 40 -258 -2 -2 -106 50
-232 116 -125 66 -229 120 -232 120 -2 0 -107 -54 -233 -121 -126 -66 -233
-119 -238 -117 -4 1 12 119 37 262 l44 259 -194 187 -194 187 105 16 c58 9
178 26 268 39 l163 22 116 238 c64 131 118 238 120 238 1 0 57 -108 123 -240z"/>
</g>
</svg>
